<?xml version="1.0" standalone="no"?><!DOCTYPE svg PUBLIC "-//W3C//DTD SVG 1.1//EN" "http://www.w3.org/Graphics/SVG/1.1/DTD/svg11.dtd"><svg t="1681631079590" class="icon" viewBox="0 0 1024 1024" version="1.1" xmlns="http://www.w3.org/2000/svg" p-id="2379" xmlns:xlink="http://www.w3.org/1999/xlink" width="200" height="200"><path d="M878.4 145.6c-96.685714-96.685714-253.142857-96.685714-349.714286 0l-110.742857 110.742857 58.285714 58.285714 110.742858-110.742857c61.485714-61.485714 165.257143-68 233.142857 0 68 68 61.485714 171.657143 0 233.142857l-110.742857 110.742858 58.4 58.4 110.742857-110.742858c96.457143-96.685714 96.457143-253.142857-0.114286-349.828571zM437.142857 820.114286c-61.485714 61.485714-165.257143 68-233.142857 0-68-68-61.485714-171.657143 0-233.142857l110.742857-110.742858-58.4-58.4-110.742857 110.742858c-96.685714 96.685714-96.685714 253.142857 0 349.714285s253.142857 96.685714 349.714286 0l110.742857-110.742857-58.285714-58.285714-110.628572 110.857143zM224.342857 166.171429a9.177143 9.177143 0 0 0-12.914286 0L166.171429 211.428571a9.177143 9.177143 0 0 0 0 12.914286l633.6 633.6c3.542857 3.542857 9.371429 3.542857 12.914285 0l45.257143-45.257143c3.542857-3.542857 3.542857-9.371429 0-12.914285L224.342857 166.171429z" p-id="2380" fill="#707070"></path></svg>