<?xml version="1.0" standalone="no"?><!DOCTYPE svg PUBLIC "-//W3C//DTD SVG 1.1//EN" "http://www.w3.org/Graphics/SVG/1.1/DTD/svg11.dtd"><svg t="1681629977083" class="icon" viewBox="0 0 1024 1024" version="1.1" xmlns="http://www.w3.org/2000/svg" p-id="6521" xmlns:xlink="http://www.w3.org/1999/xlink" width="200" height="200"><path d="M775.3555 75.954l245.952 426a20.096 20.096 0 0 1 0 20.096l-245.952 426a20.094 20.094 0 0 1-17.402 10.048H266.0515a20.092 20.092 0 0 1-17.402-10.048l-245.954-426a20.096 20.096 0 0 1 0-20.096l245.952-426a20.094 20.094 0 0 1 17.402-10.048h491.904c7.18 0 13.812 3.83 17.402 10.048z" fill="#FC4747" p-id="6522"></path><path d="M345.1295 541.232c0-42.698-78.402-26.052-78.402-83.948 0-35.702 29.912-46.318 55.726-46.318 15.68 0 43.904 4.1 43.904 17.368 0 4.824-3.376 13.75-10.614 13.75-6.514 0-12.784-9.166-33.292-9.166-17.61 0-30.154 6.754-30.154 21.954 0 35.702 78.4 19.54 78.4 83.706 0 34.498-23.158 51.382-55 51.382-31.36 0-53.312-16.402-53.312-28.466 0-5.79 5.066-13.75 11.096-13.75 8.684 0 14.474 19.058 41.25 19.058 17.37 0.002 30.398-8.2 30.398-25.57zM490.8375 411.69c5.79 0 8.444 5.79 8.444 11.338 0 6.272-2.894 12.062-8.444 12.062h-37.15v144.5c0 5.548-6.514 8.444-12.784 8.444-6.514 0-12.784-2.896-12.784-8.444v-144.5h-37.39c-5.306 0-8.444-5.548-8.444-11.822 0-5.548 2.654-11.58 8.444-11.58h100.11v0.002zM513.7635 535.684v-70.198c0-39.08 23.4-53.796 54.036-53.796 30.394 0 54.278 14.716 54.278 53.796v70.198c0 39.082-23.884 53.796-54.278 53.796-30.636 0-54.036-14.716-54.036-53.796z m82.744-70.198c0-21.228-10.856-31.12-28.706-31.12-18.094 0-28.466 9.89-28.466 31.12v70.198c0 21.228 10.374 31.12 28.466 31.12 17.852 0 28.706-9.89 28.706-31.12v-70.198zM651.9975 419.89c0-4.342 3.86-8.202 9.89-8.202h47.04c29.674 0 52.83 14.234 52.83 53.07v1.93c0 38.598-23.884 53.312-54.278 53.312h-29.912v59.584c0 5.548-6.272 8.444-12.784 8.444-6.272 0-12.784-2.896-12.784-8.444v-159.696h-0.002z m25.568 14.476v65.374h29.912c17.852 0 28.708-10.132 28.708-31.36v-2.894c0-21.228-10.856-31.12-28.708-31.12h-29.912z" fill="#FFFFFF" p-id="6523"></path><path d="M1021.2995 522.046l-245.94 426.002a20.07 20.07 0 0 1-17.418 10.038H266.0455a20.06 20.06 0 0 1-17.396-10.038l-111.964-193.936h504.1a21.32 21.32 0 0 0 18.468-10.656l250.74-434.288 111.304 192.78a20.016 20.016 0 0 1 0.002 20.098z" fill="#E03636" p-id="6524"></path><path d="M713.6075 892.646H310.3975a31.544 31.544 0 0 1-27.242-15.73L81.5515 527.728a31.548 31.548 0 0 1 0-31.456L283.1575 147.084a31.546 31.546 0 0 1 27.242-15.73h403.208c11.2 0 21.642 6.028 27.242 15.728l201.604 349.188a31.548 31.548 0 0 1 0 31.456L740.8475 876.916a31.546 31.546 0 0 1-27.24 15.73zM310.3975 161.324a1.488 1.488 0 0 0-1.286 0.744L107.5075 511.258a1.494 1.494 0 0 0 0 1.486l201.604 349.188c0.266 0.46 0.76 0.746 1.288 0.746h403.208a1.492 1.492 0 0 0 1.288-0.746l201.604-349.188a1.494 1.494 0 0 0 0-1.486L714.8955 162.068a1.494 1.494 0 0 0-1.288-0.746H310.3975v0.002z" fill="#FFFFFF" p-id="6525"></path></svg>